{"title":"Rampart 2011 DVDSCR XviD-SIMS","uid":6851505,"size":1777929089,"categoryP":"video","categoryS":"movies","magnet":"?xt=urn:btih:aa440abcc1cf151d87408f2f2f69316490936137&amp;dn=Rampart+2011+DVDSCR+XviD-SIMS&amp;tr=udp%3A%2F%2Ftracker.openbittorrent.com%3A80&amp;tr=udp%3A%2F%2Fopen.demonii.com%3A1337&amp;tr=udp%3A%2F%2Ftracker.coppersurfer.tk%3A6969&amp;tr=udp%3A%2F%2Fexodus.desync.com%3A6969","seeders":0,"leechers":1,"uploader":"TvTeam","files":5,"time":1322544479,"description":". \n &lt;a href=&quot;\nhttp://www.torrenting.com&quot; rel=&quot;nofollow&quot; target=&quot;_NEW&quot;&gt;\nhttp://www.torrenting.com&lt;/a&gt;          :     Once &amp; For all ;)\n\n\n               www . Torrenting . Com \n\n(((((((((((((= Enjoy No RAR releases =))))))))))))))))))))\n\n\n...................................NFO:....................................\n\n.SIMS presents to you ... Rampart 2011 DVDSCR XviD-SIMS\n\neneral\nFormat                                   : AVI\nFormat/Info                              : Audio Video Interleave\nFormat profile                           : OpenDML\nFile size                                : 1.64 GiB\nDuration                                 : 1h 48mn\nOverall bit rate                         : 2 174 Kbps\nWriting application                      : Lavf51.12.1\n\nVideo\nID                                       : 0\nFormat                                   : xvid\nCodec ID                                 : xvid\nDuration                                 : 1h 48mn\nBit rate                                 : 2 031 Kbps\nWidth                                    : 720 pixels\nHeight                                   : 368 pixels\nDisplay aspect ratio                     : 1.957\nFrame rate                               : 29.970 fps\nBits/(Pixel*Frame)                       : 0.256\nStream size                              : 1.53 GiB (93%)\n\nAudio\nID                                       : 1\nFormat                                   : MPEG Audio\nFormat version                           : Version 1\nFormat profile                           : Layer 3\nMode                                     : Joint stereo\nMode extension                           : MS Stereo\nCodec ID                                 : 55\nCodec ID/Hint                            : MP3\nDuration                                 : 1h 48mn\nBit rate mode                            : Constant\nBit rate                                 : 128 Kbps\nChannel(s)                               : 2 channels\nSampling rate                            : 44.1 KHz\nCompression mode                         : Lossy\nStream size                              : 40.0 MiB (2%)\nAlignment                                : Aligned on interleaves\nInterleave, duration                     : 65 ms (1.94 video frames)\nInterleave, preload duration             : 26 ms\nWriting library                          : LAME3.97\n\n\n\n\n","torrent":{"xt":"urn:btih:aa440abcc1cf151d87408f2f2f69316490936137","amp;dn":"Rampart+2011+DVDSCR+XviD-SIMS","amp;tr":["udp%3A%2F%2Ftracker.openbittorrent.com%3A80","udp%3A%2F%2Fopen.demonii.com%3A1337","udp%3A%2F%2Ftracker.coppersurfer.tk%3A6969","udp%3A%2F%2Fexodus.desync.com%3A6969"],"infoHash":"aa440abcc1cf151d87408f2f2f69316490936137","infoHashBuffer":{"type":"Buffer","data":[170,68,10,188,193,207,21,29,135,64,143,47,47,105,49,100,144,147,97,55]},"announce":[],"urlList":[]}}